<?xml version="1.0" encoding="UTF-8" standalone="no"?>
<svg
   width="512"
   height="512"
   viewBox="0 0 5120 5120"
   version="1.1"
   id="svg67"
   sodipodi:docname="DenoFS.svg"
   inkscape:version="1.1.2 (0a00cf5339, 2022-02-04)"
   xmlns:inkscape="http://www.inkscape.org/namespaces/inkscape"
   xmlns:sodipodi="http://sodipodi.sourceforge.net/DTD/sodipodi-0.dtd"
   xmlns:xlink="http://www.w3.org/1999/xlink"
   xmlns="http://www.w3.org/2000/svg"
   xmlns:svg="http://www.w3.org/2000/svg"
   xmlns:rdf="http://www.w3.org/1999/02/22-rdf-syntax-ns#"
   xmlns:cc="http://creativecommons.org/ns#"
   xmlns:dc="http://purl.org/dc/elements/1.1/">
  <defs
     id="defs71">
    <linearGradient
       inkscape:collect="always"
       id="linearGradient110998">
      <stop
         style="stop-color:#ff0052;stop-opacity:1;"
         offset="0"
         id="stop110994" />
      <stop
         style="stop-color:#6100a5;stop-opacity:1"
         offset="1"
         id="stop110996" />
    </linearGradient>
    <linearGradient
       inkscape:collect="always"
       id="linearGradient1911">
      <stop
         style="stop-color:#ff0052;stop-opacity:1"
         offset="0"
         id="stop1907" />
      <stop
         style="stop-color:#6100a5;stop-opacity:1"
         offset="1"
         id="stop1909" />
    </linearGradient>
    <linearGradient
       inkscape:collect="always"
       xlink:href="#linearGradient1911"
       id="linearGradient1913"
       x1="-0.24637866"
       y1="-8.6232538"
       x2="5114.082"
       y2="5102.6499"
       gradientUnits="userSpaceOnUse"
       gradientTransform="scale(0.1)" />
    <linearGradient
       inkscape:collect="always"
       xlink:href="#linearGradient110998"
       id="linearGradient111000"
       x1="2453.4656"
       y1="1861.0082"
       x2="3095.5571"
       y2="2598.3003"
       gradientUnits="userSpaceOnUse" />
  </defs>
  <sodipodi:namedview
     id="namedview69"
     pagecolor="#ffffff"
     bordercolor="#666666"
     borderopacity="1.0"
     inkscape:pageshadow="2"
     inkscape:pageopacity="0.0"
     inkscape:pagecheckerboard="0"
     showgrid="false"
     inkscape:zoom="2.7037806"
     inkscape:cx="-66.203596"
     inkscape:cy="76.744392"
     inkscape:window-width="1440"
     inkscape:window-height="836"
     inkscape:window-x="0"
     inkscape:window-y="0"
     inkscape:window-maximized="1"
     inkscape:current-layer="svg67" />
  <title
     id="title57">Deno logo</title>
  <path
     id="path59"
     style="fill:url(#linearGradient1913);fill-opacity:1;stroke-width:0.1"
     d="M 256 0 A 256 256 0 0 0 256 512 A 256 256 0 0 0 256 0 z M 235.5 26.900391 A 12.4 12.4 0 0 1 235.40039 32.5 L 235.30078 32.800781 L 218.30078 95.800781 L 218.19922 96.099609 A 12.5 12.5 0 0 1 194.09961 89.599609 L 194.19922 89.300781 L 210 30.599609 L 211.69922 30.300781 A 229.9 229.9 0 0 1 235.5 26.900391 z M 293 29 L 294.80078 29.300781 A 228.6 228.6 0 0 1 317.40039 34.300781 L 311.09961 57.800781 L 311 58.099609 A 12.5 12.5 0 0 1 286.90039 51.599609 L 287 51.300781 L 293 29 z M 391.90039 70.400391 L 393.40039 71.5 A 231.2 231.2 0 0 1 413.09961 88 L 412.69922 89.300781 L 412.59961 89.599609 A 12.5 12.5 0 0 1 388.5 83.099609 L 388.59961 82.800781 L 391.90039 70.400391 z M 123.34961 85.710938 C 124.93086 85.49375 126.57422 85.575 128.19922 86 C 134.79922 87.8 138.69961 94.5 137.09961 101 L 137 101.40039 L 120 164.40039 L 119.90039 164.69922 A 12.5 12.5 0 0 1 95.800781 158.09961 L 95.900391 157.80078 L 112.90039 94.800781 L 113 94.5 C 114.425 89.7 118.60586 86.3625 123.34961 85.710938 z M 341.79297 97.611328 C 343.38828 97.394141 345.04922 97.475391 346.69922 97.900391 C 353.19922 99.700391 357.1 106.4 355.5 113 L 355.5 113.30078 L 342.09961 162.80078 L 341 161.90039 A 139.9 139.9 0 0 0 319.90039 149.09961 L 331.30078 106.69922 L 331.40039 106.40039 C 332.82539 101.60039 337.00703 98.262891 341.79297 97.611328 z M 246 144.90039 C 281.8 144.90039 312.49922 154.79922 336.69922 173.69922 C 357.29922 189.79922 372.39922 211.99961 380.19922 237.09961 L 380.40039 237.69922 L 380.59961 238.40039 L 381 239.69922 L 381.59961 242.09961 L 383.19922 247.69922 L 384.90039 254.09961 L 387.80078 264.69922 L 392.40039 281.5 L 399.80078 309.09961 L 408.19922 340.5 L 421.69922 391 L 426.80078 410 L 425.69922 411.19922 C 390.09922 450.09922 341.30039 476.7 286.40039 484 L 285.90039 480.69922 L 285 474.09961 L 284.19922 469.30078 L 283.30078 463 L 282.09961 455.30078 L 281.59961 452.30078 L 280.5 445 L 279.80078 440.69922 L 278.90039 435.09961 L 278 429.69922 L 277.09961 424.5 L 276.19922 419.40039 L 275.40039 414.40039 L 274.5 409.59961 L 273.69922 405 L 273.09961 401.59961 L 272.40039 398.30078 L 272 396.19922 L 271.19922 392 L 270.59961 389 L 269.90039 385.30078 L 269.30078 382.69922 L 268.80078 380.19922 L 268.30078 377.80078 L 268 376.19922 L 267.30078 373.19922 L 266.80078 371 L 266.30078 368.80078 L 265.90039 367.40039 L 265.40039 365.40039 L 265 363.5 L 264.5 361.59961 L 264 359.80078 L 263.69922 358.69922 L 263.19922 357 L 262.80078 355.40039 L 262.5 354.30078 L 262.09961 353.30078 L 261.80078 352.40039 L 261.40039 351 L 261.09961 350 L 260.90039 349.40039 A 66.8 66.8 0 0 0 259.09961 344.69922 L 258.80078 344.09961 L 261.09961 338.09961 L 252 338.40039 L 249.5 338.5 C 166.9 340.2 113.59961 305.09961 113.59961 250.09961 C 113.59961 191.79961 171.6 144.90039 246 144.90039 z M 54.199219 145.5 A 12.7 12.7 0 0 1 57.199219 145.90039 C 63.799219 147.70039 67.699609 154.4 66.099609 161 L 66 161.30078 L 49 224.30078 L 48.900391 224.59961 C 47.000391 230.99961 40.199219 234.79961 33.699219 233.09961 A 12.4 12.4 0 0 1 27.5 229.30078 A 228.4 228.4 0 0 1 54.199219 145.5 z M 426.92969 145.51562 C 427.74846 145.56191 428.57539 145.68789 429.40039 145.90039 C 435.90039 147.70039 439.90078 154.4 438.30078 161 L 438.19922 161.30078 L 421.19922 224.30078 L 421.09961 224.59961 A 12.5 12.5 0 0 1 397 218 L 397.09961 217.69922 L 414.09961 154.69922 L 414.09961 154.40039 C 415.84961 148.80039 421.19829 145.1916 426.92969 145.51562 z M 469.95898 229.21484 C 470.77074 229.26113 471.58789 229.38711 472.40039 229.59961 C 479.00039 231.39961 482.90078 238.09961 481.30078 244.59961 L 481.30078 245 L 464.19922 308 L 464.19922 308.30078 A 12.54193 12.54193 0 0 1 440 301.69922 L 440.09961 301.40039 L 457.09961 238.40039 L 457.19922 238.09961 C 458.86172 232.49961 464.27673 228.89082 469.95898 229.21484 z M 88.826172 243.51562 C 89.647482 243.56191 90.475781 243.68789 91.300781 243.90039 C 97.800781 245.70039 101.69961 252.4 100.09961 259 L 100.09961 259.30078 L 83.099609 322.30078 L 83 322.59961 A 12.5 12.5 0 0 1 58.900391 316 L 58.900391 315.69922 L 75.900391 252.69922 L 76 252.40039 C 77.6625 246.80039 83.076999 243.1916 88.826172 243.51562 z M 131.80078 316.40039 C 138.10078 321.90039 145.40039 326.89961 153.40039 331.09961 L 138 388.30078 L 137.90039 388.59961 A 12.5 12.5 0 0 1 113.80078 382 L 113.90039 381.69922 L 130.90039 318.69922 L 131 318.30078 L 131.80078 316.40039 z M 247.82617 380.88281 C 248.64748 380.93848 249.47578 381.07578 250.30078 381.30078 A 12.5 12.5 0 0 1 258.09961 387.59961 L 258.5 389.40039 L 259.09961 392.30078 L 259.5 394.40039 L 259.40039 394.90039 L 259.09961 396.30078 L 259.09961 396.59961 L 242.09961 459.59961 L 242 459.90039 A 12.5 12.5 0 0 1 217.90039 453.40039 L 217.90039 453.09961 L 234.90039 390.09961 L 235 389.80078 C 236.6625 384.11328 242.077 380.49316 247.82617 380.88281 z M 178.1582 411.38281 C 178.9699 411.43848 179.78711 411.57578 180.59961 411.80078 C 187.19961 413.50078 191.1 420.20078 189.5 426.80078 L 189.40039 427.09961 L 177.30078 472.19922 L 175.59961 471.5 A 228.7 228.7 0 0 1 154.09961 462.19922 L 165.30078 420.59961 L 165.40039 420.30078 C 167.06289 414.61328 172.47632 410.99316 178.1582 411.38281 z "
     transform="scale(10)" />
  <path
     d="M2620 1870a160 160 0 1 1 0 320 160 160 0 0 1 0-320z"
     id="path63"
     style="fill:url(#linearGradient111000);fill-opacity:1" />
  <metadata
     id="metadata3720">
    <rdf:RDF>
      <cc:Work
         rdf:about="">
        <dc:title>Deno logo</dc:title>
      </cc:Work>
    </rdf:RDF>
  </metadata>
  <rect
     style="fill:#ff0052;fill-opacity:1;stroke-width:10"
     id="rect848"
     width="1138.8608"
     height="338.42575"
     x="-2285.1777"
     y="-1.4179083" />
  <rect
     style="fill:#6100a5;fill-opacity:1;stroke-width:9.67408"
     id="rect6686"
     width="1138.86"
     height="338.42575"
     x="-1146.3168"
     y="-1.4179083"
     ry="0"
     rx="0" />
</svg>
